<svg version="1.1" id="Layer_1" xmlns="http://www.w3.org/2000/svg" xmlns:xlink="http://www.w3.org/1999/xlink" x="0px" y="0px"
	 width="100%" viewBox="0 0 768 448" enable-background="new 0 0 768 448" xml:space="preserve">
<path fill="#000000" opacity="1.000000" stroke="none" 
	d="
M185.366760,241.850616 
	C188.127609,240.548325 186.479828,239.406754 185.601944,238.306244 
	C181.765442,233.496872 177.845596,228.752640 174.072571,223.894226 
	C167.865662,215.901810 167.828079,212.637833 172.809464,204.083344 
	C176.122803,198.393326 180.479691,193.313324 183.222427,186.925720 
	C179.677399,185.833038 176.817795,186.277542 174.006622,188.161377 
	C169.862961,190.938171 165.609833,193.552887 161.379868,196.199142 
	C158.749268,197.844849 156.202942,197.623810 154.240692,195.205856 
	C152.286118,192.797363 152.647934,190.281799 154.637817,187.949173 
	C164.184204,176.758514 187.252014,170.280396 201.294861,174.740433 
	C208.568466,177.050552 213.277084,182.503494 217.486542,188.252457 
	C220.059189,191.765961 222.433182,191.998291 225.906342,190.317307 
	C229.647827,188.506439 233.463745,186.836914 237.310242,185.259445 
	C240.354568,184.010941 242.886749,184.774658 244.473633,187.798019 
	C246.140930,190.974548 245.378281,193.971756 242.512985,195.659821 
	C236.355743,199.287369 230.008728,202.625381 223.567413,205.724426 
	C220.360275,207.267426 217.201660,206.489670 214.333694,204.028427 
	C211.591751,201.675339 208.995850,199.016418 204.960373,197.359512 
	C200.125732,203.365433 195.234390,209.406509 190.387039,215.482681 
	C188.685913,217.615051 190.338135,219.186874 191.463028,220.788391 
	C195.279114,226.221359 199.687637,231.228790 202.805801,237.165146 
	C205.143951,241.616531 204.102814,245.560928 200.566956,248.359497 
	C192.510376,254.736160 182.762909,257.977081 173.329910,261.621552 
	C170.386734,262.758698 167.228638,260.989258 166.090576,257.786011 
	C164.964478,254.616592 165.288193,251.368652 168.818115,249.629227 
	C174.188156,246.983047 179.642090,244.507141 185.366760,241.850616 
z"/>
<path fill="#000000" opacity="1.000000" stroke="none" 
	d="
M495.527863,257.451843 
	C487.686188,267.364746 479.532959,269.123047 470.737640,263.319580 
	C467.904114,261.449890 466.863434,259.408234 468.289459,256.253387 
	C469.641266,253.262772 470.158783,249.884064 472.227539,247.257141 
	C481.937622,250.534058 484.115021,249.070892 487.786041,239.220261 
	C489.835693,233.720337 489.130127,229.109253 486.799042,223.999420 
	C481.628571,212.665390 476.843689,201.153168 472.058685,189.648254 
	C471.397919,188.059509 470.332397,186.371094 471.075500,183.611847 
	C475.797455,183.611847 480.729736,183.604507 485.661926,183.615570 
	C487.541687,183.619797 488.055573,185.035065 488.660187,186.461014 
	C491.186218,192.418350 493.803009,198.337265 496.317108,204.299530 
	C497.012665,205.949036 497.483887,207.690384 499.386536,209.213776 
	C502.170776,202.605820 505.050842,196.293762 507.484283,189.813965 
	C509.148010,185.383713 511.534790,182.819199 516.631470,183.538116 
	C520.039734,184.018860 523.568176,183.023636 527.133667,184.061996 
	C527.652710,187.768982 525.379089,190.511047 524.102905,193.440033 
	C515.343079,213.545303 507.881012,234.217834 497.823700,253.755264 
	C497.217010,254.933884 496.429108,256.019196 495.527863,257.451843 
z"/>
<path fill="#000000" opacity="1.000000" stroke="none" 
	d="
M620.999878,216.079224 
	C615.673645,216.078064 610.846252,216.022675 606.021057,216.101700 
	C604.457886,216.127289 602.371704,215.502991 601.681030,217.565674 
	C601.084778,219.346527 602.534180,220.668945 603.617493,221.911835 
	C607.888550,226.812119 616.626892,227.273621 622.269226,222.893707 
	C623.426453,221.995438 624.476257,220.958801 625.877197,219.719070 
	C629.076660,222.565094 632.231628,225.213684 635.194275,228.062347 
	C637.169739,229.961838 635.940063,231.704575 634.391418,233.190277 
	C630.552612,236.872955 625.899353,238.863953 620.730103,239.930466 
	C604.029419,243.376175 588.865051,235.598618 584.453003,221.234344 
	C580.149231,207.222473 585.169800,193.008301 596.726196,186.486832 
	C608.653198,179.756195 624.635254,182.045654 633.380737,191.847717 
	C638.507507,197.593826 640.427856,204.491440 640.346497,212.098480 
	C640.317017,214.852737 639.179626,216.044571 636.477295,216.030869 
	C631.484924,216.005539 626.492188,216.057449 620.999878,216.079224 
M619.399170,204.619110 
	C621.872437,204.300766 621.391541,202.862732 620.512451,201.444427 
	C617.779175,197.034592 613.346558,196.997467 609.026306,197.489288 
	C605.356445,197.907043 602.766174,200.015213 601.973694,204.652206 
	C607.788879,204.652206 613.202820,204.652206 619.399170,204.619110 
z"/>
<path fill="#000000" opacity="1.000000" stroke="none" 
	d="
M391.181854,211.257431 
	C398.946106,202.801804 409.309937,203.358017 419.190216,202.471161 
	C417.664490,197.309586 412.272125,195.693909 406.523407,198.126770 
	C404.923981,198.803635 403.627655,200.873428 401.580688,199.779739 
	C398.363678,198.060928 395.100281,196.341507 392.186401,194.178040 
	C390.620209,193.015198 392.026794,191.525879 393.089783,190.396912 
	C401.513306,181.450699 421.515778,180.059677 431.115479,187.735245 
	C436.621704,192.137817 437.821381,198.247940 437.800232,204.755630 
	C437.767242,214.916428 437.435760,225.077469 437.500183,235.236679 
	C437.521942,238.668594 436.403198,240.449371 432.957458,239.963287 
	C428.537811,239.339813 423.630371,241.786514 419.702972,237.756058 
	C418.682648,236.708969 417.538910,238.131210 416.571594,238.567612 
	C411.811951,240.714905 406.822388,240.846207 401.863800,240.014648 
	C387.482666,237.602890 382.435608,224.289108 391.181854,211.257431 
M410.623383,227.407059 
	C412.679047,226.876343 414.842316,226.593475 416.765869,225.758453 
	C419.876678,224.408096 420.229034,221.559937 419.729218,218.626511 
	C419.185486,215.435486 416.508484,216.490250 414.552124,216.353210 
	C413.089020,216.250732 411.564148,216.325378 410.132202,216.629333 
	C407.078186,217.277573 404.427032,218.465363 404.355194,222.268021 
	C404.283112,226.084045 406.996002,226.758469 410.623383,227.407059 
z"/>
<path fill="#000000" opacity="1.000000" stroke="none" 
	d="
M283.017853,183.038208 
	C285.392700,180.552246 284.493896,177.744080 284.695618,175.167328 
	C285.554230,164.200302 291.900330,157.340775 301.944916,156.670898 
	C313.818542,155.879044 317.133698,159.950195 314.334534,171.880524 
	C313.580994,172.513535 312.795044,172.204071 311.989014,172.001968 
	C304.318878,170.078781 301.070923,172.997467 301.823303,181.003708 
	C301.972412,182.590271 302.492462,183.528137 304.154083,183.580429 
	C305.151398,183.611832 306.149658,183.619308 307.147552,183.622055 
	C315.119049,183.643951 314.890625,183.693176 315.132538,191.646393 
	C315.291016,196.855957 313.167023,198.557648 308.316620,197.995682 
	C303.917603,197.486023 301.315430,198.225998 301.598175,204.010666 
	C302.100616,214.290390 301.390472,224.623779 301.496216,234.931534 
	C301.533325,238.550064 300.498688,240.078171 296.745850,240.030731 
	C281.805786,239.841812 284.965576,241.152756 284.704681,228.278046 
	C284.532776,219.795975 284.660095,211.307938 284.639954,202.822617 
	C284.634796,200.654114 284.878571,198.475494 281.747620,197.968307 
	C275.673340,196.984344 278.569397,192.062134 277.994537,188.746841 
	C277.388672,185.252640 279.282745,183.522903 283.017853,183.038208 
z"/>
<path fill="#000000" opacity="1.000000" stroke="none" 
	d="
M545.706909,207.727142 
	C547.891907,204.654587 550.558838,202.312195 552.077148,198.071823 
	C546.567810,198.071823 541.638550,197.890259 536.729370,198.126328 
	C532.405273,198.334274 530.504578,196.661835 530.965210,192.307739 
	C531.122131,190.824142 531.014343,189.313034 531.036865,187.814621 
	C531.078247,185.058334 532.157837,183.551926 535.238586,183.575485 
	C546.884033,183.664581 558.530884,183.637100 570.176758,183.569092 
	C573.189453,183.551498 573.887939,185.025223 574.373413,187.806503 
	C575.736206,195.614639 570.974121,200.552139 566.766541,205.892807 
	C561.955566,211.999405 557.278137,218.211212 552.173584,224.857880 
	C558.144714,226.136032 563.445679,225.701843 568.677368,225.421173 
	C572.699158,225.205368 574.754944,226.310760 574.310364,230.628799 
	C574.157593,232.112061 574.206421,233.627869 574.291809,235.121460 
	C574.481445,238.437363 573.069885,240.075516 569.651123,240.057846 
	C558.161560,239.998505 546.671692,240.016525 535.181946,239.986313 
	C533.447205,239.981766 531.480713,239.729492 531.318909,237.662735 
	C530.934753,232.755981 529.888367,227.725983 533.485962,223.317429 
	C537.584778,218.294678 541.488220,213.112473 545.706909,207.727142 
z"/>
<path fill="#000000" opacity="1.000000" stroke="none" 
	d="
M367.285034,205.154556 
	C367.283234,209.632614 367.245178,213.632111 367.290833,217.630661 
	C367.375854,225.076553 369.762329,226.917313 376.878967,225.118805 
	C377.663086,224.920639 378.471710,224.819366 379.494965,224.631699 
	C381.040833,228.478287 380.245544,232.289124 380.182678,236.010849 
	C380.144562,238.267731 378.233643,238.932327 376.396362,239.357101 
	C360.928589,242.933212 350.600922,237.354492 349.784973,218.726685 
	C349.551849,213.404358 349.758423,208.063721 349.699158,202.732193 
	C349.683105,201.288376 350.158752,198.995789 348.545074,198.724884 
	C341.488647,197.540283 344.115753,192.185257 343.707428,188.170319 
	C343.577087,186.888855 343.463959,185.495499 344.494049,184.011490 
	C349.558167,184.441071 349.862457,181.187698 349.801086,177.020630 
	C349.650238,166.776184 348.811676,167.723053 359.223816,167.676880 
	C367.270752,167.641190 367.270905,167.673187 367.298859,176.007187 
	C367.323883,183.467148 367.328064,183.676498 374.980042,183.523773 
	C379.167206,183.440186 380.780457,184.977432 380.356201,189.039413 
	C380.201233,190.523270 380.228424,192.043030 380.338257,193.534210 
	C380.576385,196.768387 379.057434,198.147446 375.920532,197.998734 
	C375.256165,197.967239 374.588104,198.013458 373.921722,198.024719 
	C367.344788,198.135910 367.344788,198.135956 367.285034,205.154556 
z"/>
<path fill="#000000" opacity="1.000000" stroke="none" 
	d="
M463.345154,217.999954 
	C463.345520,223.819870 463.356323,229.139893 463.336609,234.459778 
	C463.332306,235.620163 463.687683,237.215668 463.079926,237.869812 
	C459.046082,242.211365 453.797150,239.372147 449.100647,239.849960 
	C446.171295,240.148010 445.768188,237.753021 445.773346,235.402527 
	C445.784271,230.415146 445.766388,225.427689 445.764343,220.440262 
	C445.756226,200.822891 445.855194,181.204483 445.662994,161.588928 
	C445.618866,157.085495 447.000244,155.408325 451.628601,155.542389 
	C465.234131,155.936447 463.229340,153.838348 463.323547,167.126755 
	C463.442596,183.917038 463.347443,200.708847 463.345154,217.999954 
z"/>
<path fill="#000000" opacity="1.000000" stroke="none" 
	d="
M320.835022,188.218018 
	C320.769501,184.815414 322.159790,183.595184 325.112854,183.627167 
	C340.603027,183.794830 338.101898,181.858734 338.257568,195.884903 
	C338.398010,208.541336 338.131958,221.203110 338.346069,233.857452 
	C338.422241,238.358032 336.933563,240.144592 332.339691,240.060028 
	C318.987366,239.814301 320.865692,241.242401 320.792511,228.665558 
	C320.714996,215.341888 320.804962,202.017227 320.835022,188.218018 
z"/>
<path fill="#000000" opacity="1.000000" stroke="none" 
	d="
M154.328796,255.311020 
	C150.419479,259.190033 146.866348,262.929321 143.064087,266.395294 
	C139.992416,269.195282 136.652084,268.857300 133.696213,266.072357 
	C130.907227,263.444672 130.891342,260.071045 133.300308,257.574890 
	C144.905014,245.550064 156.093338,233.153091 166.953568,219.825958 
	C170.138153,223.698608 172.870209,226.976334 175.550308,230.295990 
	C177.306961,232.471817 175.808014,233.930298 174.337067,235.391205 
	C167.744232,241.938889 161.162857,248.498138 154.328796,255.311020 
z"/>
<path fill="#000000" opacity="1.000000" stroke="none" 
	d="
M218.624115,170.447906 
	C213.993805,175.827194 207.616241,177.050018 203.600403,173.601501 
	C198.834045,169.508560 198.331848,162.110367 202.510147,157.540634 
	C206.264511,153.434555 213.595673,153.235489 217.828064,157.124710 
	C221.508270,160.506516 221.822083,164.542908 218.624115,170.447906 
z"/>
<path fill="#000000" opacity="1.000000" stroke="none" 
	d="
M321.532776,171.963654 
	C319.655731,163.789474 323.699829,158.791016 331.000946,159.711441 
	C334.418121,160.142227 336.974030,161.998901 337.989197,165.218140 
	C339.040009,168.550476 338.526428,171.892700 335.579803,174.225082 
	C332.512726,176.652802 329.022736,177.360718 325.369843,175.565292 
	C323.899231,174.842484 322.511932,173.876480 321.532776,171.963654 
z"/>
</svg>